# xmcd CD database file
# Copyright (C) 1993-1998 Ti Kan
# 
# Track frame offsets:
#     150
#     15700
#     31272
#     45080
#     57537
#     71380
#     85825
#     97122
#     115562
#     132170
#     145990
#     160330
#     176810
#     190330
#     204955
#     217702
#     229727
#     244107
#     257447
#     272807
# 
# Disc length: 3805 seconds
# 
# Revision: 1
# Processed by: cddbd v1.4b41PL1 Copyright (c) Steve Scherf et al.
# Submitted via: DiscPlay 4.0.4
# 
DISCID=0e0edb14
DTITLE=Don Williams - The Best Of
DYEAR=1900
DGENRE=
TTITLE0=I Recall a Gipsy Woman
TTITLE1=Till The River All Runs Dry
TTITLE2=Say It Again
TTITLE3=Some Broken Hearts Never Mend
TTITLE4=I'm Just a Country Boy
TTITLE5=Tulsa Time
TTITLE6=It Must Be Love
TTITLE7=I Believe In You
TTITLE8=Love Is On a Roll
TTITLE9=Stay Young
TTITLE10=Amanda
TTITLE11=That's The Thing About Love
TTITLE12=Shelter Of Your Eyes
TTITLE13=She's In Love With a Rodeo Man
TTITLE14=It's Gotta Be Magic
TTITLE15=Your Sweet Love
TTITLE16=Listen To The Radio
TTITLE17=Love Me Over Again
TTITLE18=All I'm Missing Is You
TTITLE19=You're My Best Friend
EXTD=
EXTT0=
EXTT1=
EXTT2=
EXTT3=
EXTT4=
EXTT5=
EXTT6=
EXTT7=
EXTT8=
EXTT9=
EXTT10=
EXTT11=
EXTT12=
EXTT13=
EXTT14=
EXTT15=
EXTT16=
EXTT17=
EXTT18=
EXTT19=
PLAYORDER=
